<svg width="28" height="27" viewBox="0 0 28 27" fill="none" xmlns="http://www.w3.org/2000/svg">
<g clip-path="url(#clip0_2_292)">
<path d="M8.38182 17.4014C8.43866 17.4014 8.49538 17.396 8.55122 17.3854L13.1857 16.2879L22.9943 6.47931C23.2956 6.178 23.5346 5.82028 23.6977 5.42659C23.8607 5.0329 23.9447 4.61095 23.9447 4.18482C23.9447 3.75869 23.8607 3.33674 23.6976 2.94305C23.5346 2.54937 23.2956 2.19165 22.9942 1.89034C22.6929 1.58902 22.3352 1.35001 21.9415 1.18694C21.5478 1.02387 21.1259 0.939939 20.6997 0.939941C20.2736 0.939944 19.8517 1.02388 19.458 1.18695C19.0643 1.35003 18.7066 1.58904 18.4053 1.89036L8.59666 11.699L7.50678 16.2982L7.4993 16.333C7.47437 16.463 7.47846 16.5969 7.51127 16.7252C7.54409 16.8534 7.60481 16.9728 7.68912 17.0749C7.77342 17.177 7.87922 17.2591 7.99897 17.3156C8.11871 17.372 8.24944 17.4013 8.38182 17.4014ZM10.0945 12.5348L19.5725 3.05703C19.7206 2.90895 19.8964 2.79149 20.0898 2.71135C20.2833 2.63121 20.4907 2.58996 20.7001 2.58996C20.9095 2.58996 21.1169 2.63121 21.3103 2.71135C21.5038 2.79149 21.6796 2.90895 21.8277 3.05703C21.9758 3.20511 22.0932 3.3809 22.1734 3.57438C22.2535 3.76785 22.2948 3.97522 22.2948 4.18463C22.2948 4.39405 22.2535 4.60141 22.1734 4.79489C22.0932 4.98836 21.9758 5.16416 21.8277 5.31223L12.3497 14.7901L9.39403 15.4905L10.0945 12.5348Z" fill="#FC7E47"/>
<path d="M25.3277 19.6753H3.04951C2.72137 19.6757 2.40679 19.8062 2.17476 20.0382C1.94273 20.2702 1.81221 20.5848 1.81183 20.913V24.626C1.81221 24.9541 1.94273 25.2687 2.17476 25.5008C2.40679 25.7328 2.72137 25.8633 3.04951 25.8637H25.3277C25.6559 25.8633 25.9704 25.7328 26.2025 25.5008C26.4345 25.2687 26.565 24.9541 26.5654 24.626V20.913C26.565 20.5848 26.4345 20.2702 26.2025 20.0382C25.9704 19.8062 25.6559 19.6757 25.3277 19.6753ZM24.9152 24.2134H3.46207V21.3255H24.9152V24.2134Z" fill="#FC7E47"/>
</g>
<defs>
<clipPath id="clip0_2_292">
<rect width="26.4038" height="26.4038" fill="white" transform="translate(0.986694 0.284912)"/>
</clipPath>
</defs>
</svg>
