<svg width="29" height="25" viewBox="0 0 29 25" fill="none" xmlns="http://www.w3.org/2000/svg">
<path d="M15.2593 0.588586C15.0964 0.461562 14.8957 0.392578 14.6891 0.392578C14.4825 0.392578 14.2818 0.461562 14.1189 0.588586L0.924438 10.8769L2.06575 12.3203L3.67902 11.0624V22.4287C3.67999 22.9155 3.87378 23.382 4.21796 23.7262C4.56214 24.0704 5.02867 24.2642 5.51541 24.2651H23.8793C24.366 24.2642 24.8326 24.0704 25.1767 23.7262C25.5209 23.382 25.7147 22.9155 25.7157 22.4287V11.0707L27.3289 12.3286L28.4703 10.8852L15.2593 0.588586ZM16.5337 22.4287H12.861V15.0832H16.5337V22.4287ZM18.3701 22.4287V15.0832C18.3696 14.5963 18.176 14.1295 17.8317 13.7852C17.4874 13.4409 17.0206 13.2473 16.5337 13.2468H12.861C12.3741 13.2473 11.9073 13.4409 11.563 13.7852C11.2187 14.1295 11.0251 14.5963 11.0246 15.0832V22.4287H5.51541V9.63096L14.6973 2.47823L23.8793 9.64014V22.4287H18.3701Z" fill="#FC7E47"/>
</svg>
