<svg width="39" height="28" viewBox="0 0 39 28" fill="none" xmlns="http://www.w3.org/2000/svg">
<path d="M35.7274 0.463867H2.96348C2.23935 0.463867 1.54488 0.751526 1.03285 1.26356C0.520813 1.7756 0.233154 2.47007 0.233154 3.19419V25.0368C0.233154 25.7609 0.520813 26.4554 1.03285 26.9674C1.54488 27.4795 2.23935 27.7671 2.96348 27.7671H35.7274C36.4515 27.7671 37.146 27.4795 37.658 26.9674C38.1701 26.4554 38.4577 25.7609 38.4577 25.0368V3.19419C38.4577 2.47007 38.1701 1.7756 37.658 1.26356C37.146 0.751526 36.4515 0.463867 35.7274 0.463867ZM32.724 3.19419L19.3454 12.45L5.96684 3.19419H32.724ZM2.96348 25.0368V4.43649L18.5673 15.2349C18.7958 15.3935 19.0673 15.4784 19.3454 15.4784C19.6236 15.4784 19.8951 15.3935 20.1236 15.2349L35.7274 4.43649V25.0368H2.96348Z" fill="#E79146"/>
</svg>
