<svg width="31" height="30" viewBox="0 0 31 30" fill="none" xmlns="http://www.w3.org/2000/svg">
<path d="M6.32891 0C3.12365 0 0.500336 2.62326 0.500336 5.82858V23.9157C0.500336 27.1209 3.12359 29.7433 6.32891 29.7433H24.416C27.6213 29.7433 30.2436 27.121 30.2436 23.9157V5.82858C30.2436 2.62332 27.6213 0 24.416 0H6.32891ZM7.79489 4.90824C9.33174 4.90824 10.2784 5.91716 10.3076 7.24337C10.3076 8.5403 9.33168 9.57758 7.76516 9.57758H7.73633C6.22872 9.57758 5.25429 8.54036 5.25429 7.24337C5.25429 5.91719 6.25821 4.90824 7.79486 4.90824H7.79489ZM21.0388 11.1068C23.9945 11.1068 26.2102 13.0386 26.2102 17.19V24.94H21.7184V17.7096C21.7184 15.8927 21.0683 14.6531 19.4427 14.6531C18.2018 14.6531 17.4621 15.4886 17.1373 16.2957C17.0187 16.5845 16.9895 16.9878 16.9895 17.3917V24.94H12.4977C12.4977 24.94 12.5567 12.692 12.4977 11.4237H16.9905V13.3378C17.5874 12.4168 18.6551 11.1068 21.0388 11.1068V11.1068ZM5.51924 11.4247H10.011V24.9401H5.51924V11.4247Z" fill="#007BBD"/>
</svg>
