<svg width="17" height="23" viewBox="0 0 17 23" fill="none" xmlns="http://www.w3.org/2000/svg">
<path d="M8.44154 0.339966C6.27794 0.341773 4.20296 1.19969 2.66981 2.72633C1.13665 4.25298 0.269921 6.32429 0.258911 8.48787C0.258911 11.7317 2.07882 14.4477 3.41249 16.4274L3.65561 16.7886C4.98253 18.7117 6.40601 20.5664 7.92058 22.3456L8.44849 22.9638L8.9764 22.3456C10.4908 20.5663 11.9143 18.7116 13.2414 16.7886L13.4845 16.4204C14.8112 14.4408 16.6311 11.7317 16.6311 8.48787C16.6201 6.32309 15.7524 4.25073 14.2178 2.72388C12.6831 1.19704 10.6064 0.339938 8.44154 0.339966ZM8.44154 12.1485C7.54031 12.1485 6.65932 11.8813 5.90997 11.3806C5.16062 10.8799 4.57658 10.1682 4.23169 9.33558C3.8868 8.50295 3.79657 7.58675 3.97239 6.70284C4.14821 5.81892 4.58219 5.00699 5.21946 4.36972C5.85673 3.73246 6.66866 3.29847 7.55257 3.12265C8.43649 2.94683 9.35269 3.03707 10.1853 3.38195C11.018 3.72684 11.7296 4.31089 12.2303 5.06023C12.731 5.80958 12.9983 6.69057 12.9983 7.59181C12.9983 8.80032 12.5182 9.95934 11.6636 10.8139C10.8091 11.6684 9.65006 12.1485 8.44154 12.1485Z" fill="#FC7E47"/>
</svg>
