<svg width="30" height="46" viewBox="0 0 30 46" fill="none" xmlns="http://www.w3.org/2000/svg">
<path d="M26.267 0.0327148H3.01697C2.22159 0.0336081 1.45905 0.349965 0.896634 0.912381C0.334219 1.4748 0.0178611 2.23734 0.0169678 3.03271V42.0327C0.0178611 42.8281 0.334219 43.5906 0.896634 44.153C1.45905 44.7155 2.22159 45.0318 3.01697 45.0327H26.267C27.0623 45.0318 27.8249 44.7155 28.3873 44.153C28.9497 43.5906 29.2661 42.8281 29.267 42.0327V3.03271C29.2661 2.23734 28.9497 1.4748 28.3873 0.912381C27.8249 0.349965 27.0623 0.0336081 26.267 0.0327148ZM26.267 3.03271V6.03271H3.01697V3.03271H26.267ZM26.267 9.03271L26.268 30.0327H3.01697V9.03271H26.267ZM26.267 42.0327H3.01697V33.0327H26.2685V42.0327H26.267Z" fill="#E79146"/>
</svg>
