<svg width="41" height="41" viewBox="0 0 41 41" fill="none" xmlns="http://www.w3.org/2000/svg">
<path d="M29.4856 40.1155C30.0168 40.1186 30.5433 40.0158 31.0343 39.8132C31.5253 39.6106 31.9711 39.3123 32.3456 38.9355L37.7656 33.5155C38.1381 33.1408 38.3472 32.6339 38.3472 32.1055C38.3472 31.5771 38.1381 31.0702 37.7656 30.6955L29.7656 22.6955C29.3909 22.323 28.884 22.1139 28.3556 22.1139C27.8272 22.1139 27.3203 22.323 26.9456 22.6955L23.7456 25.8755C21.5301 25.2848 19.4782 24.1973 17.7456 22.6955C16.2478 20.9601 15.1608 18.9092 14.5656 16.6955L17.7456 13.4955C18.1181 13.1208 18.3272 12.6139 18.3272 12.0855C18.3272 11.5571 18.1181 11.0502 17.7456 10.6755L9.74559 2.67552C9.37086 2.30302 8.86396 2.09393 8.33559 2.09393C7.80722 2.09393 7.30031 2.30302 6.92559 2.67552L1.52559 8.11552C1.14885 8.49 0.850477 8.93577 0.64788 9.42681C0.445282 9.91786 0.342519 10.4443 0.345587 10.9755C0.527033 18.6601 3.59774 25.9941 8.94559 31.5155C14.467 36.8634 21.801 39.9341 29.4856 40.1155ZM8.34559 6.93552L13.5256 12.1155L10.9456 14.6955C10.7012 14.9244 10.5182 15.211 10.4134 15.529C10.3086 15.847 10.2853 16.1862 10.3456 16.5155C11.0931 19.8563 12.6758 22.9528 14.9456 25.5155C17.5063 27.7882 20.6036 29.3713 23.9456 30.1155C24.2699 30.1833 24.6061 30.1695 24.9237 30.0752C25.2414 29.981 25.5307 29.8093 25.7656 29.5755L28.3456 26.9355L33.5256 32.1155L29.5256 36.1155C22.8931 35.9447 16.5646 33.2978 11.7856 28.6955C7.17141 23.9145 4.5168 17.5777 4.34559 10.9355L8.34559 6.93552ZM36.3456 18.1155H40.3456C40.3974 15.7375 39.9673 13.3736 39.0811 11.1663C38.1949 8.95903 36.8709 6.95401 35.189 5.27211C33.5071 3.59021 31.5021 2.26625 29.2948 1.38002C27.0875 0.493798 24.7236 0.0636548 22.3456 0.115517V4.11552C24.2014 4.05132 26.0506 4.36954 27.7782 5.05039C29.5058 5.73123 31.0749 6.76016 32.3879 8.0732C33.7009 9.38624 34.7299 10.9553 35.4107 12.6829C36.0916 14.4105 36.4098 16.2597 36.3456 18.1155Z" fill="#E79146"/>
</svg>
