<svg width="38" height="31" viewBox="0 0 38 31" fill="none" xmlns="http://www.w3.org/2000/svg">
<path d="M37.4661 4.51745C36.4395 6.03479 35.1801 7.32825 33.6878 8.39782C33.7025 8.68468 33.7099 9.0089 33.7099 9.37048C33.7099 11.3795 33.4151 13.391 32.8256 15.4049C32.236 17.4188 31.3355 19.3465 30.124 21.1879C28.9125 23.0293 27.4693 24.6607 25.7946 26.0819C24.1198 27.5032 22.1067 28.6364 19.7552 29.4816C17.4037 30.3269 14.8835 30.7495 12.1946 30.7495C7.99817 30.7495 4.13367 29.6237 0.601105 27.3723C1.22809 27.4416 1.82943 27.4763 2.40511 27.4763C5.91088 27.4763 9.0421 26.4033 11.7988 24.2573C10.1642 24.2275 8.70028 23.7275 7.40707 22.7573C6.11387 21.7871 5.22391 20.5473 4.73721 19.038C5.21828 19.1291 5.69309 19.1746 6.16162 19.1746C6.83604 19.1746 7.49966 19.0872 8.15249 18.9124C6.40807 18.5652 4.96094 17.7019 3.81107 16.3224C2.66125 14.9429 2.08633 13.3507 2.08633 11.5457V11.4527C3.15706 12.0418 4.29916 12.3552 5.51263 12.3928C4.47926 11.7082 3.65994 10.8155 3.0547 9.71471C2.44941 8.61389 2.14677 7.4226 2.14677 6.14086C2.14677 4.78905 2.48766 3.53026 3.16945 2.36449C5.06647 4.67772 7.3651 6.52653 10.0653 7.91091C12.7656 9.29531 15.6625 10.0642 18.756 10.2175C18.6241 9.67108 18.558 9.10089 18.5577 8.50691C18.5577 6.43294 19.2964 4.66208 20.7736 3.19432C22.2508 1.72656 24.033 0.992676 26.1201 0.992676C28.3053 0.992676 30.1459 1.78332 31.6419 3.36462C33.3512 3.02819 34.9517 2.41967 36.4433 1.53907C35.8686 3.33618 34.7613 4.72253 33.1213 5.69811C34.6286 5.52013 36.0769 5.12657 37.4661 4.51745H37.4661Z" fill="#007BBD"/>
</svg>
